<?xml version="1.0" encoding="iso-8859-1"?>
<!-- Generator: Adobe Illustrator 19.0.0, SVG Export Plug-In . SVG Version: 6.00 Build 0)  -->
<svg version="1.1" id="Layer_1" xmlns="http://www.w3.org/2000/svg" xmlns:xlink="http://www.w3.org/1999/xlink" x="0px" y="0px"
	 viewBox="0 0 512 512" style="enable-background:new 0 0 512 512;" xml:space="preserve">
<g>
	<g>
		<g>
			<path d="M501.333,170.667H10.667C4.771,170.667,0,175.438,0,181.333v21.333c0,5.896,4.771,10.667,10.667,10.667h490.667
				c5.896,0,10.667-4.771,10.667-10.667v-21.333C512,175.438,507.229,170.667,501.333,170.667z"/>
			<path d="M501.333,298.667H10.667C4.771,298.667,0,303.438,0,309.333v21.333c0,5.896,4.771,10.667,10.667,10.667h490.667
				c5.896,0,10.667-4.771,10.667-10.667v-21.333C512,303.438,507.229,298.667,501.333,298.667z"/>
			<path d="M330.667,426.667h-320C4.771,426.667,0,431.438,0,437.333v21.333c0,5.896,4.771,10.667,10.667,10.667h320
				c5.896,0,10.667-4.771,10.667-10.667v-21.333C341.333,431.438,336.563,426.667,330.667,426.667z"/>
			<path d="M501.333,42.667H10.667C4.771,42.667,0,47.438,0,53.333v21.333c0,5.896,4.771,10.667,10.667,10.667h490.667
				c5.896,0,10.667-4.771,10.667-10.667V53.333C512,47.438,507.229,42.667,501.333,42.667z"/>
		</g>
	</g>
</g>
<g>
</g>
<g>
</g>
<g>
</g>
<g>
</g>
<g>
</g>
<g>
</g>
<g>
</g>
<g>
</g>
<g>
</g>
<g>
</g>
<g>
</g>
<g>
</g>
<g>
</g>
<g>
</g>
<g>
</g>
</svg>
